<svg xmlns="http://www.w3.org/2000/svg" width="72" height="72" viewBox="0 0 72 72"><path fill-rule="evenodd" clip-rule="evenodd" fill="#FFF" d="M51.148 37.356v-2.754h6.427v2.754h-6.427zm-5.41-13.062l4.545-4.544 1.947 1.947-4.544 4.545-1.948-1.948zM36 48.373c-6.845 0-12.394-5.547-12.394-12.394 0-6.845 5.548-12.394 12.394-12.394s12.394 5.548 12.394 12.394S42.846 48.373 36 48.373zm0-22.034c-5.323 0-9.639 4.316-9.639 9.64s4.316 9.64 9.639 9.64a9.64 9.64 0 0 0 0-19.28zm-1.377-11.935h2.754v6.427h-2.754v-6.427zm-14.852 7.293l1.948-1.947 4.544 4.544-1.947 1.948-4.545-4.545zm1.081 15.659h-6.427v-2.754h6.427v2.754zm5.411 10.309l-4.544 4.544-1.948-1.947 4.544-4.544 1.948 1.947zm11.114 9.889h-2.754v-6.427h2.754v6.427zm14.853-7.293l-1.947 1.947-4.545-4.544 1.948-1.947 4.544 4.544z"/></svg>