<svg xmlns="http://www.w3.org/2000/svg" width="72" height="72" viewBox="0 0 72 72"><path fill-rule="evenodd" clip-rule="evenodd" fill="#FFF" d="M52 52.499H22v-.057c-.33.029-.661.057-1 .057-6.075 0-11-4.925-11-11s4.925-11 11-11c.127 0 .25.015.376.019 1.599-7.44 8.207-13.019 16.124-13.019 8.671 0 15.765 6.692 16.434 15.191 4.597.901 8.066 4.948 8.066 9.809 0 5.523-4.477 10-10 10zm0-17c-.383 0-.755.039-1.121.098.062-.526.121-1.055.121-1.598 0-7.456-6.045-13.5-13.5-13.5-7.456 0-13.5 6.044-13.5 13.5 0 .03.005.059.005.089A7.967 7.967 0 0 0 21 33.499a8 8 0 0 0 0 16c.341 0 .671-.039 1-.08v.08h30a7 7 0 1 0 0-14z"/></svg>