<svg xmlns="http://www.w3.org/2000/svg" width="72" height="72" viewBox="0 0 72 72"><path fill-rule="evenodd" clip-rule="evenodd" fill="#FFF" d="M51.883 49.5h-1v-3h1a7 7 0 1 0 0-14c-.383 0-.755.039-1.121.098.062-.526.121-1.055.121-1.598 0-7.456-6.044-13.5-13.5-13.5s-13.5 6.044-13.5 13.5c0 .03.004.059.005.089a7.967 7.967 0 0 0-3.005-.589 8 8 0 0 0 0 16v3c-6.075 0-11-4.925-11-11s4.925-11 11-11c.127 0 .25.015.375.019 1.6-7.439 8.208-13.019 16.125-13.019 8.671 0 15.765 6.692 16.434 15.191 4.597.901 8.066 4.948 8.066 9.809 0 5.523-4.477 10-10 10zm-25-4h-3v-6h3v6zm0 9h-3v-6h3v6zm7-6h-3v-6h3v6zm0 9h-3v-6h3v6zm7-12h-3v-6h3v6zm0 9h-3v-6h3v6zm7-6h-3v-6h3v6zm0 9h-3v-6h3v6z"/></svg>