<svg xmlns="http://www.w3.org/2000/svg" width="72" height="72" viewBox="0 0 72 72"><path fill-rule="evenodd" clip-rule="evenodd" fill="#FFF" d="M52 49.5c-.222 0-.437-.021-.654-.036l.993-2.981C56.047 46.305 59 43.252 59 39.5a7 7 0 0 0-7-7c-.373 0-.737.038-1.095.094.062-.523.095-1.054.095-1.594 0-7.456-6.044-13.5-13.5-13.5S24 23.544 24 31c0 .03.004.059.005.089A7.97 7.97 0 0 0 21 30.5a8 8 0 0 0 0 16c.117 0 .228-.022.343-.027l-.998 2.994C14.576 49.126 10 44.354 10 38.5c0-6.075 4.925-11 11-11 .127 0 .25.015.375.019C22.975 20.08 29.582 14.5 37.5 14.5c8.671 0 15.765 6.692 16.434 15.191C58.53 30.592 62 34.64 62 39.5c0 5.523-4.478 10-10 10zm-22-10l-5 15h-3l5-15h3zm6 3l-5 15h-3l5-15h3zm8-3l-5 15h-3l5-15h3zm6 3l-5 15h-3l5-15h3z"/></svg>