<svg xmlns="http://www.w3.org/2000/svg" width="72" height="72" viewBox="0 0 72 72"><path fill-rule="evenodd" clip-rule="evenodd" fill="#FFF" d="M59.109 38.22h-7.553l3.958 4.837L53.7 46.08l-7.369-7.86H38.67l3.821 6.616L53 47.292l-1.711 3.082-6.186-1.011 3.786 6.558-3.142 1.814-3.775-6.539-2.204 5.829-3.525-.059 3.116-10.293-3.832-6.639-3.812 6.602 3.128 10.331-3.525.059-2.217-5.862-3.794 6.572-3.141-1.814 3.782-6.553-6.15 1.006-1.711-3.082 10.474-2.447 3.825-6.625h-7.629l-7.369 7.86-1.813-3.023 3.957-4.837h-7.585v-3.627h7.585l-3.957-4.837 1.813-3.023 7.369 7.86h7.629l-3.825-6.624-10.474-2.447 1.711-3.083 6.15 1.006-3.782-6.553 3.141-1.814 3.794 6.573 2.217-5.863 3.525.06-3.128 10.33 3.812 6.602 3.832-6.638-3.116-10.293 3.525-.06 2.204 5.83 3.775-6.54 3.142 1.814-3.786 6.559 6.186-1.012L53 25.521l-10.51 2.455-3.819 6.616h7.659l7.369-7.86 1.814 3.023-3.958 4.837h7.553v3.628z"/></svg>