<svg xmlns="http://www.w3.org/2000/svg" width="72" height="72" viewBox="0 0 72 72"><path fill-rule="evenodd" clip-rule="evenodd" fill="#FFF" d="M53.34 48.113v-3.027c2.797-.839 4.848-3.403 4.848-6.472a6.786 6.786 0 0 0-6.787-6.787c-.373 0-.73.052-1.088.109.062-.515.118-1.032.118-1.564 0-7.229-5.859-13.088-13.088-13.088s-13.088 5.859-13.088 13.088c0 .03.004.058.004.086a7.756 7.756 0 0 0-10.668 7.186c0 1.395.373 2.7 1.017 3.831l-2.116 2.115a10.622 10.622 0 0 1-1.81-5.946c0-5.89 4.774-10.665 10.665-10.665.123 0 .242.015.363.019 1.551-7.213 7.957-12.622 15.634-12.622 8.406 0 15.284 6.488 15.933 14.728 4.457.875 7.82 4.798 7.82 9.511-.001 4.688-3.331 8.601-7.757 9.498zm-22.298-7.561h6.786l-15.513 19.39V45.4h-6.787l15.513-18.421v13.573zm-2.909-5.817l-6.786 7.756h3.877v9.695l6.787-8.726h-3.878v-8.725zm8.725 22.299H33.95v-5.817h2.908v5.817zM43.645 45.4h-2.909v-5.818h2.909V45.4zm0 8.725h-2.909v-5.817h2.909v5.817zm6.786-5.817h-2.908v-5.817h2.908v5.817zm0 8.726h-2.908v-5.817h2.908v5.817z"/></svg>